<svg version="1.1" id="Layer_1" xmlns="http://www.w3.org/2000/svg" xmlns:xlink="http://www.w3.org/1999/xlink" x="0px" y="0px"
	 width="100%" viewBox="0 0 1024 1024" enable-background="new 0 0 1024 1024" xml:space="preserve">
<path fill="#172021" opacity="1.000000" stroke="none" 
	d="
M672.000000,1025.000000 
	C448.000000,1025.000000 224.500000,1025.000000 1.000000,1025.000000 
	C1.000000,683.666687 1.000000,342.333344 1.000000,1.000000 
	C342.333344,1.000000 683.666687,1.000000 1025.000000,1.000000 
	C1025.000000,342.333344 1025.000000,683.666687 1025.000000,1025.000000 
	C907.500000,1025.000000 790.000000,1025.000000 672.000000,1025.000000 
M431.087921,620.329590 
	C428.407379,620.252441 425.726837,620.175354 422.266907,620.026550 
	C420.489227,619.822876 418.711578,619.619263 416.219574,619.268921 
	C415.492401,619.246643 414.765259,619.224365 413.213837,618.995728 
	C370.192505,614.941101 330.606262,600.711853 293.274200,579.281677 
	C250.494766,554.724426 227.201981,518.212830 224.054489,468.195831 
	C223.774658,464.096924 223.494827,459.997986 223.181931,455.300751 
	C223.193680,454.901550 223.205414,454.502380 223.528229,453.454895 
	C223.653351,448.631836 223.778488,443.808807 223.934021,438.134033 
	C226.523453,423.888306 227.890610,409.287476 231.908554,395.456726 
	C252.002808,326.287445 294.042480,275.795227 361.272278,248.007523 
	C413.690765,226.341644 467.324219,225.579224 521.347290,241.562622 
	C543.931641,248.244492 565.989075,256.691681 585.414307,270.257507 
	C617.325623,292.543121 639.961426,322.708466 656.159058,357.944000 
	C655.961182,358.089600 655.763306,358.235229 655.073975,357.930573 
	C642.118469,340.279572 627.662903,324.014160 611.196777,309.518677 
	C531.643188,239.485931 415.955048,239.452438 336.916382,309.606018 
	C324.518372,320.610321 313.408295,332.730835 306.014160,347.849091 
	C301.819275,356.426086 301.753418,364.882874 306.368073,373.217621 
	C308.458801,376.993835 310.822144,380.654297 313.395477,384.119476 
	C316.823364,388.735413 317.669403,388.253632 320.327179,383.291809 
	C325.733246,373.199249 330.292419,362.229919 337.577454,353.636902 
	C378.993439,304.784760 431.949097,283.321777 495.846252,289.485870 
	C524.877991,292.286530 550.853333,303.313232 575.070068,319.142517 
	C607.650635,340.438782 631.065369,369.847992 650.981812,402.732849 
	C672.542053,438.332123 677.998169,476.686218 672.400269,517.132263 
	C667.854431,549.976990 656.066284,580.558777 642.061157,610.377319 
	C641.360352,611.869324 640.964417,613.504639 640.426575,615.073181 
	C640.809143,615.362244 641.191711,615.651306 641.574280,615.940308 
	C642.981812,615.013306 644.581421,614.280518 645.756287,613.118347 
	C648.120605,610.779419 650.239502,608.193787 652.484131,605.732239 
	C673.062378,583.165710 689.513855,558.174011 697.691833,528.377380 
	C702.249939,511.769623 705.173279,494.893158 705.035095,477.605316 
	C704.898621,460.527771 706.317993,443.230896 704.129089,426.410950 
	C691.903687,332.471680 625.641357,248.409805 529.333313,217.519211 
	C508.348694,210.788437 486.848297,206.987335 464.085297,204.984085 
	C459.596405,204.789871 455.097443,204.307205 450.620850,204.464096 
	C442.390930,204.752548 434.174194,205.417511 425.029144,205.987686 
	C416.118805,206.973602 407.093506,207.363174 398.319305,209.055115 
	C369.832306,214.548279 342.369995,223.355240 317.671417,238.859741 
	C273.603027,266.523651 240.139557,303.778564 216.928391,350.590332 
	C202.101074,380.493744 195.900269,412.329407 193.228180,444.946747 
	C190.939514,472.884033 195.354630,500.442963 202.959869,527.382996 
	C228.712128,618.605347 284.839203,680.870850 376.404297,709.627563 
	C385.129852,712.367798 393.793030,716.763489 401.120880,722.222046 
	C422.461945,738.119263 444.378021,752.810242 469.424713,762.275024 
	C496.361877,772.454285 524.047058,778.332642 552.954224,774.876221 
	C572.801086,772.503113 591.769531,766.491028 609.162720,756.613464 
	C624.787537,747.740234 639.899414,737.948853 655.089844,728.329224 
	C676.878723,714.530945 700.559326,705.770203 726.204285,710.532471 
	C768.334351,718.356140 799.415161,741.733337 816.354187,782.107605 
	C817.061646,783.793945 817.775024,785.506042 818.730591,787.054932 
	C822.139404,792.580200 829.641113,796.026978 834.863281,794.588440 
	C843.550476,792.195374 847.622192,787.442993 847.323547,779.004395 
	C847.203796,775.620728 846.317505,772.003601 844.816223,768.969727 
	C829.987244,739.002991 809.012878,714.609863 779.889282,697.538330 
	C748.767639,679.295532 715.787109,673.572021 680.861511,683.257019 
	C659.903198,689.068787 641.687134,700.653931 624.143616,713.243713 
	C611.110352,722.596802 597.654236,731.428528 582.381226,736.526733 
	C571.173584,740.267822 559.435181,742.418457 547.223999,745.259399 
	C546.520020,745.336609 545.816040,745.413818 544.534851,745.456482 
	C544.006287,745.689575 543.477661,745.922607 542.509888,746.104797 
	C542.509888,746.104797 542.070618,746.155212 541.251526,746.030090 
	C540.150146,746.071228 539.048767,746.112366 537.031738,746.081177 
	C533.046814,746.105103 529.061890,746.129028 524.330811,745.841309 
	C522.886475,745.518311 521.438049,745.212341 519.998352,744.869629 
	C507.409302,741.873169 494.555573,739.687866 482.290253,735.695557 
	C458.246063,727.869019 437.571991,713.761780 417.801910,698.370544 
	C408.212280,690.904968 397.741730,685.735718 386.075500,682.143799 
	C371.965668,677.799683 357.986328,672.721008 344.499390,666.725403 
	C310.450378,651.588928 283.537720,627.914124 264.051941,595.826782 
	C264.223846,595.618591 264.395782,595.410461 265.133087,595.593811 
	C288.945923,613.506226 315.648285,625.677063 343.761841,634.977722 
	C365.634033,642.213623 388.003204,647.170715 411.827820,649.105225 
	C418.878021,649.371399 425.928253,649.637634 433.722382,650.066406 
	C434.480469,650.047119 435.238525,650.027771 436.870911,650.137939 
	C450.572174,649.745056 464.273468,649.352234 478.837097,649.023193 
	C496.779114,646.958069 514.013855,643.202393 527.791931,630.164429 
	C536.968872,621.480347 545.604004,612.458862 550.896301,600.484070 
	C548.941650,600.399841 547.286011,600.741394 545.726440,601.335388 
	C538.111816,604.235229 530.617310,607.481995 522.905640,610.089722 
	C504.780792,616.218872 485.904572,618.411682 466.115326,620.122437 
	C464.409454,620.189758 462.703552,620.257141 460.207703,620.135010 
	C450.799835,620.201538 441.391937,620.268127 431.087921,620.329590 
M644.541748,494.405396 
	C644.392944,493.566528 644.244080,492.727661 644.090454,491.176788 
	C643.746582,490.106232 643.402649,489.035706 643.001343,487.138977 
	C642.998535,485.759796 642.995728,484.380615 643.037292,482.132355 
	C639.330505,468.102509 635.623718,454.072662 631.809082,439.309052 
	C612.722717,390.061371 581.086914,352.016052 531.569641,331.573120 
	C487.198914,313.254944 442.884888,314.416962 400.879120,339.184784 
	C374.730621,354.602661 355.875183,376.974731 344.634064,405.429352 
	C341.532440,413.280518 341.514557,413.327759 348.294220,417.919525 
	C352.017761,420.441376 355.859100,422.789307 359.646454,425.217010 
	C366.421631,429.559937 366.371552,429.538971 369.455658,422.378937 
	C394.301147,364.697998 450.892731,339.395020 508.598022,357.509033 
	C538.049622,366.754089 561.369873,384.576477 579.357727,409.631775 
	C604.109680,444.108887 617.298523,482.106232 613.962402,524.850098 
	C612.076416,549.014771 605.257324,571.973755 593.651306,593.378052 
	C576.361816,625.263977 554.659363,653.274841 522.001892,670.697693 
	C508.987091,677.641052 494.870331,682.512939 481.298798,688.427856 
	C479.939972,689.020020 478.884857,690.309021 477.688812,691.274597 
	C479.050171,691.888062 480.386505,692.971924 481.776642,693.045898 
	C513.460693,694.732666 542.998291,687.381958 568.708374,668.828613 
	C599.814148,646.381714 617.702148,614.139648 631.212463,578.320374 
	C633.297974,571.831787 635.848572,565.449402 637.359619,558.829712 
	C639.606934,548.983887 641.119629,538.970337 642.987366,528.278259 
	C643.009766,527.527588 643.032227,526.776855 643.604492,525.417603 
	C643.880798,515.291504 644.157166,505.165375 644.541748,494.405396 
M458.536041,484.382812 
	C453.357819,484.370544 448.179596,484.358307 442.082977,484.314514 
	C393.650665,481.778992 351.187408,465.035553 316.187500,430.944794 
	C300.885742,416.040527 287.698822,399.414276 281.469788,378.604156 
	C276.800903,363.006409 272.918396,347.043182 278.882629,330.708679 
	C279.050262,330.249634 278.571075,329.554443 278.094513,327.984283 
	C276.395813,329.569275 274.793182,330.475555 274.057953,331.846863 
	C269.503021,340.342865 264.592590,348.709656 260.834686,357.558655 
	C253.380341,375.111969 254.718414,392.553528 262.608734,409.835815 
	C273.636169,433.989258 289.488586,454.338196 310.652252,470.206726 
	C358.991272,506.451233 413.731567,520.956726 473.603455,515.864746 
	C489.451752,514.516907 505.329803,511.619507 520.758179,507.712006 
	C540.293884,502.764221 557.753418,492.805603 574.078857,481.032623 
	C579.696472,476.981537 580.468750,474.691010 578.113892,468.225037 
	C576.644897,464.191406 574.626404,460.305420 572.437988,456.599152 
	C569.514343,451.647797 568.295715,451.653687 563.238403,454.537323 
	C553.417419,460.137177 543.904785,466.552582 533.525879,470.844086 
	C509.840973,480.637329 484.631592,483.428650 458.536041,484.382812 
M308.046539,509.492767 
	C303.062988,505.867859 298.025177,502.314850 293.106293,498.604187 
	C279.990784,488.710083 268.447693,477.254578 258.724609,463.968658 
	C257.777802,462.674896 255.924637,462.044434 254.492188,461.106079 
	C254.284973,462.857635 253.818192,464.625061 253.924347,466.357422 
	C254.148071,470.008484 255.116684,473.655731 254.998337,477.279022 
	C254.365128,496.664520 261.602966,512.285217 276.789520,524.295166 
	C278.352783,525.531433 279.690887,527.048767 281.221191,528.330872 
	C320.375427,561.135132 366.687225,576.519165 416.420074,582.675537 
	C431.867065,584.587708 447.689331,584.084106 463.320984,583.764587 
	C499.065155,583.033875 533.361633,576.135193 565.296204,559.085266 
	C575.683289,553.539490 581.641785,545.735413 582.762329,534.223694 
	C583.179565,529.936829 582.999451,525.583862 582.956604,521.262390 
	C582.916260,517.194580 580.992126,517.259216 578.208496,519.218384 
	C550.338623,538.833984 518.521790,547.793213 485.352020,551.699341 
	C460.873169,554.582153 436.153076,553.559448 411.685028,549.780823 
	C374.429047,544.027161 339.985779,530.955994 308.046539,509.492767 
z"/>
<path fill="#429E68" opacity="1.000000" stroke="none" 
	d="
M464.951233,205.122101 
	C486.848297,206.987335 508.348694,210.788437 529.333313,217.519211 
	C625.641357,248.409805 691.903687,332.471680 704.129089,426.410950 
	C706.317993,443.230896 704.898621,460.527771 705.035095,477.605316 
	C705.173279,494.893158 702.249939,511.769623 697.691833,528.377380 
	C689.513855,558.174011 673.062378,583.165710 652.484131,605.732239 
	C650.239502,608.193787 648.120605,610.779419 645.756287,613.118347 
	C644.581421,614.280518 642.981812,615.013306 641.574280,615.940308 
	C641.191711,615.651306 640.809143,615.362244 640.426575,615.073181 
	C640.964417,613.504639 641.360352,611.869324 642.061157,610.377319 
	C656.066284,580.558777 667.854431,549.976990 672.400269,517.132263 
	C677.998169,476.686218 672.542053,438.332123 650.981812,402.732849 
	C631.065369,369.847992 607.650635,340.438782 575.070068,319.142517 
	C550.853333,303.313232 524.877991,292.286530 495.846252,289.485870 
	C431.949097,283.321777 378.993439,304.784760 337.577454,353.636902 
	C330.292419,362.229919 325.733246,373.199249 320.327179,383.291809 
	C317.669403,388.253632 316.823364,388.735413 313.395477,384.119476 
	C310.822144,380.654297 308.458801,376.993835 306.368073,373.217621 
	C301.753418,364.882874 301.819275,356.426086 306.014160,347.849091 
	C313.408295,332.730835 324.518372,320.610321 336.916382,309.606018 
	C415.955048,239.452438 531.643188,239.485931 611.196777,309.518677 
	C627.662903,324.014160 642.118469,340.279572 655.435547,358.404388 
	C656.277771,359.381287 656.758423,359.884369 657.239136,360.387451 
	C657.441162,360.258209 657.643127,360.128998 657.845154,359.999786 
	C657.481201,359.169159 657.117249,358.338562 656.753296,357.507935 
	C639.961426,322.708466 617.325623,292.543121 585.414307,270.257507 
	C565.989075,256.691681 543.931641,248.244492 521.347290,241.562622 
	C467.324219,225.579224 413.690765,226.341644 361.272278,248.007523 
	C294.042480,275.795227 252.002808,326.287445 231.908554,395.456726 
	C227.890610,409.287476 226.523453,423.888306 223.805664,438.953430 
	C223.523941,444.549622 223.370560,449.326416 223.217163,454.103180 
	C223.205414,454.502380 223.193680,454.901550 223.133057,456.058319 
	C223.355835,460.869751 223.627502,464.923645 223.899170,468.977509 
	C227.201981,518.212830 250.494766,554.724426 293.274200,579.281677 
	C330.606262,600.711853 370.192505,614.941101 413.780334,619.252808 
	C415.209167,619.478455 416.071533,619.447083 416.933899,619.415649 
	C418.711578,619.619263 420.489227,619.822876 422.972595,620.261902 
	C430.744690,620.717407 437.811066,620.937561 445.314880,621.119812 
	C447.214111,621.116516 448.675934,621.151123 450.519409,621.303894 
	C456.256714,621.001709 461.612335,620.581360 466.967957,620.161072 
	C485.904572,618.411682 504.780792,616.218872 522.905640,610.089722 
	C530.617310,607.481995 538.111816,604.235229 545.726440,601.335388 
	C547.286011,600.741394 548.941650,600.399841 550.896301,600.484070 
	C545.604004,612.458862 536.968872,621.480347 527.791931,630.164429 
	C514.013855,643.202393 496.779114,646.958069 478.027344,648.861206 
	C475.409332,648.502014 473.596283,648.099670 471.793732,648.142334 
	C462.648560,648.358459 453.503662,648.631897 444.364166,649.016113 
	C441.566010,649.133789 438.785309,649.666077 435.996613,650.008423 
	C435.238525,650.027771 434.480469,650.047119 433.066223,649.751221 
	C425.280640,649.271362 418.151184,649.106628 411.021759,648.941895 
	C388.003204,647.170715 365.634033,642.213623 343.761841,634.977722 
	C315.648285,625.677063 288.945923,613.506226 264.683167,595.223450 
	C264.015350,594.607971 263.761292,594.408997 263.238892,594.148315 
	C262.910461,594.452576 262.814148,594.864746 262.811737,595.498230 
	C263.059814,596.006531 263.266968,596.248230 263.527069,596.444519 
	C283.537720,627.914124 310.450378,651.588928 344.499390,666.725403 
	C357.986328,672.721008 371.965668,677.799683 386.075500,682.143799 
	C397.741730,685.735718 408.212280,690.904968 417.801910,698.370544 
	C437.571991,713.761780 458.246063,727.869019 482.290253,735.695557 
	C494.555573,739.687866 507.409302,741.873169 519.998352,744.869629 
	C521.438049,745.212341 522.886475,745.518311 525.083252,746.119019 
	C529.872986,746.315613 533.910156,746.234558 537.947388,746.153564 
	C539.048767,746.112366 540.150146,746.071228 541.757568,746.013611 
	C542.263611,745.997131 542.631714,745.969910 542.631714,745.969910 
	C542.631714,745.969910 542.949097,746.155701 542.949097,746.155701 
	C543.477661,745.922607 544.006287,745.689575 545.000122,745.575928 
	C546.288025,745.556274 547.110657,745.417053 547.933289,745.277832 
	C559.435181,742.418457 571.173584,740.267822 582.381226,736.526733 
	C597.654236,731.428528 611.110352,722.596802 624.143616,713.243713 
	C641.687134,700.653931 659.903198,689.068787 680.861511,683.257019 
	C715.787109,673.572021 748.767639,679.295532 779.889282,697.538330 
	C809.012878,714.609863 829.987244,739.002991 844.816223,768.969727 
	C846.317505,772.003601 847.203796,775.620728 847.323547,779.004395 
	C847.622192,787.442993 843.550476,792.195374 834.863281,794.588440 
	C829.641113,796.026978 822.139404,792.580200 818.730591,787.054932 
	C817.775024,785.506042 817.061646,783.793945 816.354187,782.107605 
	C799.415161,741.733337 768.334351,718.356140 726.204285,710.532471 
	C700.559326,705.770203 676.878723,714.530945 655.089844,728.329224 
	C639.899414,737.948853 624.787537,747.740234 609.162720,756.613464 
	C591.769531,766.491028 572.801086,772.503113 552.954224,774.876221 
	C524.047058,778.332642 496.361877,772.454285 469.424713,762.275024 
	C444.378021,752.810242 422.461945,738.119263 401.120880,722.222046 
	C393.793030,716.763489 385.129852,712.367798 376.404297,709.627563 
	C284.839203,680.870850 228.712128,618.605347 202.959869,527.382996 
	C195.354630,500.442963 190.939514,472.884033 193.228180,444.946747 
	C195.900269,412.329407 202.101074,380.493744 216.928391,350.590332 
	C240.139557,303.778564 273.603027,266.523651 317.671417,238.859741 
	C342.369995,223.355240 369.832306,214.548279 398.319305,209.055115 
	C407.093506,207.363174 416.118805,206.973602 425.841980,206.075348 
	C434.127380,206.107925 441.602234,206.146484 449.071808,205.965958 
	C454.368652,205.837936 459.658356,205.413956 464.951233,205.122101 
z"/>
<path fill="#429E68" opacity="1.000000" stroke="none" 
	d="
M630.888489,578.956116 
	C617.702148,614.139648 599.814148,646.381714 568.708374,668.828613 
	C542.998291,687.381958 513.460693,694.732666 481.776642,693.045898 
	C480.386505,692.971924 479.050171,691.888062 477.688782,691.274597 
	C478.884857,690.309021 479.939972,689.020020 481.298798,688.427856 
	C494.870331,682.512939 508.987091,677.641052 522.001892,670.697693 
	C554.659363,653.274841 576.361816,625.263977 593.651306,593.378052 
	C605.257324,571.973755 612.076416,549.014771 613.962402,524.850098 
	C617.298523,482.106232 604.109680,444.108887 579.357727,409.631775 
	C561.369873,384.576477 538.049622,366.754089 508.598022,357.509033 
	C450.892731,339.395020 394.301147,364.697998 369.455658,422.378937 
	C366.371552,429.538971 366.421631,429.559937 359.646454,425.217010 
	C355.859100,422.789307 352.017761,420.441376 348.294220,417.919525 
	C341.514557,413.327759 341.532440,413.280518 344.634064,405.429352 
	C355.875183,376.974731 374.730621,354.602661 400.879120,339.184784 
	C442.884888,314.416962 487.198914,313.254944 531.569641,331.573120 
	C581.086914,352.016052 612.722717,390.061371 631.783264,439.994141 
	C631.907471,442.138855 631.878540,443.643921 632.235718,445.050934 
	C635.119690,456.410553 638.045166,467.759949 641.050781,479.087860 
	C641.416687,480.467072 642.332153,481.700470 642.992920,483.001434 
	C642.995728,484.380615 642.998535,485.759796 642.961792,487.899658 
	C642.937378,497.155212 642.945740,505.650116 642.970520,514.144958 
	C642.982117,518.105408 643.025635,522.065796 643.054688,526.026184 
	C643.032227,526.776855 643.009766,527.527588 642.765259,528.956299 
	C642.045593,531.037659 641.426453,532.410889 641.069153,533.849182 
	C637.741760,547.243835 634.430786,560.642822 631.202820,574.061646 
	C630.826050,575.627686 630.980347,577.321533 630.888489,578.956116 
z"/>
<path fill="#429E68" opacity="1.000000" stroke="none" 
	d="
M459.227051,484.592010 
	C484.631592,483.428650 509.840973,480.637329 533.525879,470.844086 
	C543.904785,466.552582 553.417419,460.137177 563.238403,454.537323 
	C568.295715,451.653687 569.514343,451.647797 572.437988,456.599152 
	C574.626404,460.305420 576.644897,464.191406 578.113892,468.225037 
	C580.468750,474.691010 579.696472,476.981537 574.078857,481.032623 
	C557.753418,492.805603 540.293884,502.764221 520.758179,507.712006 
	C505.329803,511.619507 489.451752,514.516907 473.603455,515.864746 
	C413.731567,520.956726 358.991272,506.451233 310.652252,470.206726 
	C289.488586,454.338196 273.636169,433.989258 262.608734,409.835815 
	C254.718414,392.553528 253.380341,375.111969 260.834686,357.558655 
	C264.592590,348.709656 269.503021,340.342865 274.057953,331.846863 
	C274.793182,330.475555 276.395813,329.569275 278.094513,327.984283 
	C278.571075,329.554443 279.050262,330.249634 278.882629,330.708679 
	C272.918396,347.043182 276.800903,363.006409 281.469788,378.604156 
	C287.698822,399.414276 300.885742,416.040527 316.187500,430.944794 
	C351.187408,465.035553 393.650665,481.778992 442.934998,484.441895 
	C448.933716,484.576874 454.080383,484.584442 459.227051,484.592010 
z"/>
<path fill="#429E68" opacity="1.000000" stroke="none" 
	d="
M308.343994,509.697540 
	C339.985779,530.955994 374.429047,544.027161 411.685028,549.780823 
	C436.153076,553.559448 460.873169,554.582153 485.352020,551.699341 
	C518.521790,547.793213 550.338623,538.833984 578.208496,519.218384 
	C580.992126,517.259216 582.916260,517.194580 582.956604,521.262390 
	C582.999451,525.583862 583.179565,529.936829 582.762329,534.223694 
	C581.641785,545.735413 575.683289,553.539490 565.296204,559.085266 
	C533.361633,576.135193 499.065155,583.033875 463.320984,583.764587 
	C447.689331,584.084106 431.867065,584.587708 416.420074,582.675537 
	C366.687225,576.519165 320.375427,561.135132 281.221191,528.330872 
	C279.690887,527.048767 278.352783,525.531433 276.789520,524.295166 
	C261.602966,512.285217 254.365128,496.664520 254.998337,477.279022 
	C255.116684,473.655731 254.148071,470.008484 253.924347,466.357422 
	C253.818192,464.625061 254.284973,462.857635 254.492188,461.106079 
	C255.924637,462.044434 257.777802,462.674896 258.724609,463.968658 
	C268.447693,477.254578 279.990784,488.710083 293.106293,498.604187 
	C298.025177,502.314850 303.062988,505.867859 308.343994,509.697540 
z"/>
<path fill="#46AC70" opacity="1.000000" stroke="none" 
	d="
M631.050476,578.638245 
	C630.980347,577.321533 630.826050,575.627686 631.202820,574.061646 
	C634.430786,560.642822 637.741760,547.243835 641.069153,533.849182 
	C641.426453,532.410889 642.045593,531.037659 642.744141,529.331238 
	C641.119629,538.970337 639.606934,548.983887 637.359619,558.829712 
	C635.848572,565.449402 633.297974,571.831787 631.050476,578.638245 
z"/>
<path fill="#46AC70" opacity="1.000000" stroke="none" 
	d="
M643.015137,482.566895 
	C642.332153,481.700470 641.416687,480.467072 641.050781,479.087860 
	C638.045166,467.759949 635.119690,456.410553 632.235718,445.050934 
	C631.878540,443.643921 631.907471,442.138855 631.837158,440.361023 
	C635.623718,454.072662 639.330505,468.102509 643.015137,482.566895 
z"/>
<path fill="#48B171" opacity="1.000000" stroke="none" 
	d="
M436.433777,650.073181 
	C438.785309,649.666077 441.566010,649.133789 444.364166,649.016113 
	C453.503662,648.631897 462.648560,648.358459 471.793732,648.142334 
	C473.596283,648.099670 475.409332,648.502014 477.596130,648.829224 
	C464.273468,649.352234 450.572174,649.745056 436.433777,650.073181 
z"/>
<path fill="#46AC70" opacity="1.000000" stroke="none" 
	d="
M643.329590,525.721924 
	C643.025635,522.065796 642.982117,518.105408 642.970520,514.144958 
	C642.945740,505.650116 642.937378,497.155212 642.990479,488.312744 
	C643.402649,489.035706 643.746582,490.106232 644.044678,491.852783 
	C644.143738,493.365631 644.288574,494.202423 644.433472,495.039246 
	C644.157166,505.165375 643.880798,515.291504 643.329590,525.721924 
z"/>
<path fill="#49B473" opacity="1.000000" stroke="none" 
	d="
M464.518250,205.053085 
	C459.658356,205.413956 454.368652,205.837936 449.071808,205.965958 
	C441.602234,206.146484 434.127380,206.107925 426.303375,206.044281 
	C434.174194,205.417511 442.390930,204.752548 450.620850,204.464096 
	C455.097443,204.307205 459.596405,204.789871 464.518250,205.053085 
z"/>
<path fill="#285B44" opacity="1.000000" stroke="none" 
	d="
M450.137756,621.185730 
	C448.675934,621.151123 447.214111,621.116516 444.866455,621.091003 
	C439.981781,620.844971 435.982910,620.589844 431.984070,620.334717 
	C441.391937,620.268127 450.799835,620.201538 460.223572,620.360107 
	C456.872192,620.785461 453.504974,620.985596 450.137756,621.185730 
z"/>
<path fill="#48B171" opacity="1.000000" stroke="none" 
	d="
M411.424805,649.023560 
	C418.151184,649.106628 425.280640,649.271362 432.694275,649.669983 
	C425.928253,649.637634 418.878021,649.371399 411.424805,649.023560 
z"/>
<path fill="#295947" opacity="1.000000" stroke="none" 
	d="
M458.881531,484.487427 
	C454.080383,484.584442 448.933716,484.576874 443.394226,484.457703 
	C448.179596,484.358307 453.357819,484.370544 458.881531,484.487427 
z"/>
<path fill="#21493C" opacity="1.000000" stroke="none" 
	d="
M223.372696,453.779053 
	C223.370560,449.326416 223.523941,444.549622 223.790466,439.379303 
	C223.778488,443.808807 223.653351,448.631836 223.372696,453.779053 
z"/>
<path fill="#49B473" opacity="1.000000" stroke="none" 
	d="
M431.536011,620.332153 
	C435.982910,620.589844 439.981781,620.844971 444.429047,621.128906 
	C437.811066,620.937561 430.744690,620.717407 423.362305,620.297729 
	C425.726837,620.175354 428.407379,620.252441 431.536011,620.332153 
z"/>
<path fill="#21493C" opacity="1.000000" stroke="none" 
	d="
M223.976837,468.586670 
	C223.627502,464.923645 223.355835,460.869751 223.149597,456.357483 
	C223.494827,459.997986 223.774658,464.096924 223.976837,468.586670 
z"/>
<path fill="#49B473" opacity="1.000000" stroke="none" 
	d="
M450.519409,621.303894 
	C453.504974,620.985596 456.872192,620.785461 460.618530,620.454834 
	C462.703552,620.257141 464.409454,620.189758 466.541626,620.141724 
	C461.612335,620.581360 456.256714,621.001709 450.519409,621.303894 
z"/>
<path fill="#4CBB77" opacity="1.000000" stroke="none" 
	d="
M537.489563,746.117371 
	C533.910156,746.234558 529.872986,746.315613 525.456360,746.274780 
	C529.061890,746.129028 533.046814,746.105103 537.489563,746.117371 
z"/>
<path fill="#49B473" opacity="1.000000" stroke="none" 
	d="
M416.576721,619.342285 
	C416.071533,619.447083 415.209167,619.478455 414.192444,619.355957 
	C414.765259,619.224365 415.492401,619.246643 416.576721,619.342285 
z"/>
<path fill="#4CBB77" opacity="1.000000" stroke="none" 
	d="
M547.578613,745.268616 
	C547.110657,745.417053 546.288025,745.556274 545.288696,745.593262 
	C545.816040,745.413818 546.520020,745.336609 547.578613,745.268616 
z"/>
<path fill="#327D58" opacity="1.000000" stroke="none" 
	d="
M644.487610,494.722321 
	C644.288574,494.202423 644.143738,493.365631 644.047058,492.208801 
	C644.244080,492.727661 644.392944,493.566528 644.487610,494.722321 
z"/>
<path fill="#4CBB77" opacity="1.000000" stroke="none" 
	d="
M542.729492,746.130249 
	C542.949097,746.155701 542.631714,745.969910 542.631714,745.969910 
	C542.631714,745.969910 542.263611,745.997131 542.167114,746.076172 
	C542.070618,746.155212 542.509888,746.104797 542.729492,746.130249 
z"/>
<path fill="#172021" opacity="1.000000" stroke="none" 
	d="
M656.456177,357.725952 
	C657.117249,358.338562 657.481201,359.169159 657.845154,359.999786 
	C657.643127,360.128998 657.441162,360.258209 657.239136,360.387451 
	C656.758423,359.884369 656.277771,359.381287 655.681274,358.629517 
	C655.763306,358.235229 655.961182,358.089600 656.456177,357.725952 
z"/>
<path fill="#172021" opacity="1.000000" stroke="none" 
	d="
M263.471008,594.256226 
	C263.761292,594.408997 264.015350,594.607971 264.400452,595.027710 
	C264.395782,595.410461 264.223846,595.618591 263.789490,596.135620 
	C263.266968,596.248230 263.059814,596.006531 263.001221,595.243896 
	C263.221527,594.597717 263.346252,594.427002 263.471008,594.256226 
z"/>
<path fill="#172021" opacity="1.000000" stroke="none" 
	d="
M262.907349,595.022705 
	C262.814148,594.864746 262.910461,594.452576 263.238892,594.148315 
	C263.346252,594.427002 263.221527,594.597717 262.907349,595.022705 
z"/>
</svg>